<mxfile host="app.diagrams.net" modified="2023-09-30T12:05:46.119Z" agent="Mozilla/5.0 (Windows NT 10.0; Win64; x64) AppleWebKit/537.36 (KHTML, like Gecko) Chrome/116.0.0.0 Safari/537.36 OPR/102.0.0.0" etag="k0O7q5DCNNSKFSp6F2WK" version="22.0.0" type="device">
  <diagram name="Page-1" id="3iADJJOXmUjC-48T04XR">
    <mxGraphModel dx="1393" dy="766" grid="1" gridSize="10" guides="1" tooltips="1" connect="1" arrows="1" fold="1" page="1" pageScale="1" pageWidth="850" pageHeight="1100" math="0" shadow="0">
      <root>
        <mxCell id="0" />
        <mxCell id="1" parent="0" />
        <mxCell id="EummFThD2EcEPccRBhcC-7" style="edgeStyle=orthogonalEdgeStyle;rounded=0;orthogonalLoop=1;jettySize=auto;html=1;exitX=0.5;exitY=1;exitDx=0;exitDy=0;" parent="1" source="EummFThD2EcEPccRBhcC-2" edge="1">
          <mxGeometry relative="1" as="geometry">
            <mxPoint x="95" y="230" as="targetPoint" />
          </mxGeometry>
        </mxCell>
        <mxCell id="EummFThD2EcEPccRBhcC-2" value="START" style="ellipse;whiteSpace=wrap;html=1;" parent="1" vertex="1">
          <mxGeometry x="50" y="140" width="90" height="60" as="geometry" />
        </mxCell>
        <mxCell id="HDgKOSh33EnxBrE-TIj8-3" style="edgeStyle=orthogonalEdgeStyle;rounded=0;orthogonalLoop=1;jettySize=auto;html=1;" parent="1" source="EummFThD2EcEPccRBhcC-3" edge="1">
          <mxGeometry relative="1" as="geometry">
            <mxPoint x="190" y="270" as="targetPoint" />
          </mxGeometry>
        </mxCell>
        <mxCell id="EummFThD2EcEPccRBhcC-3" value="Input Num1, Num2" style="rounded=0;whiteSpace=wrap;html=1;" parent="1" vertex="1">
          <mxGeometry x="35" y="240" width="120" height="60" as="geometry" />
        </mxCell>
        <mxCell id="HDgKOSh33EnxBrE-TIj8-4" style="edgeStyle=orthogonalEdgeStyle;rounded=0;orthogonalLoop=1;jettySize=auto;html=1;" parent="1" source="EummFThD2EcEPccRBhcC-9" edge="1">
          <mxGeometry relative="1" as="geometry">
            <mxPoint x="360" y="270" as="targetPoint" />
          </mxGeometry>
        </mxCell>
        <mxCell id="EummFThD2EcEPccRBhcC-9" value="sum = Num1 + Num2" style="rounded=0;whiteSpace=wrap;html=1;" parent="1" vertex="1">
          <mxGeometry x="200" y="240" width="130" height="60" as="geometry" />
        </mxCell>
        <mxCell id="tx3kYR19iMO4YYq1ai4r-8" style="edgeStyle=orthogonalEdgeStyle;rounded=0;orthogonalLoop=1;jettySize=auto;html=1;" edge="1" parent="1" source="EummFThD2EcEPccRBhcC-10">
          <mxGeometry relative="1" as="geometry">
            <mxPoint x="680" y="270" as="targetPoint" />
          </mxGeometry>
        </mxCell>
        <mxCell id="EummFThD2EcEPccRBhcC-10" value="product= Num1*Num2" style="rounded=0;whiteSpace=wrap;html=1;" parent="1" vertex="1">
          <mxGeometry x="530" y="240" width="125" height="60" as="geometry" />
        </mxCell>
        <mxCell id="EummFThD2EcEPccRBhcC-11" value="quotient= Num1/Num2" style="rounded=0;whiteSpace=wrap;html=1;" parent="1" vertex="1">
          <mxGeometry x="690" y="240" width="130" height="60" as="geometry" />
        </mxCell>
        <mxCell id="tx3kYR19iMO4YYq1ai4r-13" style="edgeStyle=orthogonalEdgeStyle;rounded=0;orthogonalLoop=1;jettySize=auto;html=1;" edge="1" parent="1" source="EummFThD2EcEPccRBhcC-19">
          <mxGeometry relative="1" as="geometry">
            <mxPoint x="350" y="400" as="targetPoint" />
          </mxGeometry>
        </mxCell>
        <mxCell id="EummFThD2EcEPccRBhcC-19" value="Print sum" style="shape=parallelogram;perimeter=parallelogramPerimeter;whiteSpace=wrap;html=1;fixedSize=1;" parent="1" vertex="1">
          <mxGeometry x="205" y="370" width="125" height="60" as="geometry" />
        </mxCell>
        <mxCell id="tx3kYR19iMO4YYq1ai4r-16" style="edgeStyle=orthogonalEdgeStyle;rounded=0;orthogonalLoop=1;jettySize=auto;html=1;" edge="1" parent="1" source="EummFThD2EcEPccRBhcC-20">
          <mxGeometry relative="1" as="geometry">
            <mxPoint x="640" y="400" as="targetPoint" />
          </mxGeometry>
        </mxCell>
        <mxCell id="EummFThD2EcEPccRBhcC-20" value="Print product" style="shape=parallelogram;perimeter=parallelogramPerimeter;whiteSpace=wrap;html=1;fixedSize=1;" parent="1" vertex="1">
          <mxGeometry x="500" y="370" width="120" height="60" as="geometry" />
        </mxCell>
        <mxCell id="EummFThD2EcEPccRBhcC-21" value="Print quotient" style="shape=parallelogram;perimeter=parallelogramPerimeter;whiteSpace=wrap;html=1;fixedSize=1;" parent="1" vertex="1">
          <mxGeometry x="640" y="370" width="120" height="60" as="geometry" />
        </mxCell>
        <mxCell id="EummFThD2EcEPccRBhcC-33" value="END" style="ellipse;whiteSpace=wrap;html=1;" parent="1" vertex="1">
          <mxGeometry x="447.5" y="480" width="105" height="70" as="geometry" />
        </mxCell>
        <mxCell id="HDgKOSh33EnxBrE-TIj8-10" value="" style="endArrow=none;html=1;rounded=0;" parent="1" edge="1">
          <mxGeometry width="50" height="50" relative="1" as="geometry">
            <mxPoint x="180" y="330" as="sourcePoint" />
            <mxPoint x="840" y="330" as="targetPoint" />
          </mxGeometry>
        </mxCell>
        <mxCell id="HDgKOSh33EnxBrE-TIj8-11" value="" style="endArrow=none;html=1;rounded=0;" parent="1" edge="1">
          <mxGeometry width="50" height="50" relative="1" as="geometry">
            <mxPoint x="180" y="400" as="sourcePoint" />
            <mxPoint x="180" y="330" as="targetPoint" />
          </mxGeometry>
        </mxCell>
        <mxCell id="HDgKOSh33EnxBrE-TIj8-12" value="" style="endArrow=classic;html=1;rounded=0;" parent="1" edge="1">
          <mxGeometry width="50" height="50" relative="1" as="geometry">
            <mxPoint x="180" y="400" as="sourcePoint" />
            <mxPoint x="210" y="400" as="targetPoint" />
          </mxGeometry>
        </mxCell>
        <mxCell id="HDgKOSh33EnxBrE-TIj8-15" value="" style="endArrow=none;html=1;rounded=0;" parent="1" edge="1">
          <mxGeometry width="50" height="50" relative="1" as="geometry">
            <mxPoint x="699.5" y="520" as="sourcePoint" />
            <mxPoint x="699.5" y="430" as="targetPoint" />
          </mxGeometry>
        </mxCell>
        <mxCell id="HDgKOSh33EnxBrE-TIj8-18" value="" style="endArrow=classic;html=1;rounded=0;" parent="1" edge="1">
          <mxGeometry width="50" height="50" relative="1" as="geometry">
            <mxPoint x="700" y="520" as="sourcePoint" />
            <mxPoint x="570" y="520" as="targetPoint" />
          </mxGeometry>
        </mxCell>
        <mxCell id="tx3kYR19iMO4YYq1ai4r-2" style="edgeStyle=orthogonalEdgeStyle;rounded=0;orthogonalLoop=1;jettySize=auto;html=1;" edge="1" parent="1" source="tx3kYR19iMO4YYq1ai4r-1">
          <mxGeometry relative="1" as="geometry">
            <mxPoint x="520" y="270" as="targetPoint" />
          </mxGeometry>
        </mxCell>
        <mxCell id="tx3kYR19iMO4YYq1ai4r-1" value="difference= Num1-Num2" style="rounded=0;whiteSpace=wrap;html=1;" vertex="1" parent="1">
          <mxGeometry x="370" y="240" width="120" height="60" as="geometry" />
        </mxCell>
        <mxCell id="tx3kYR19iMO4YYq1ai4r-15" style="edgeStyle=orthogonalEdgeStyle;rounded=0;orthogonalLoop=1;jettySize=auto;html=1;" edge="1" parent="1" source="tx3kYR19iMO4YYq1ai4r-11">
          <mxGeometry relative="1" as="geometry">
            <mxPoint x="490" y="400" as="targetPoint" />
          </mxGeometry>
        </mxCell>
        <mxCell id="tx3kYR19iMO4YYq1ai4r-11" value="Print difference" style="shape=parallelogram;perimeter=parallelogramPerimeter;whiteSpace=wrap;html=1;fixedSize=1;" vertex="1" parent="1">
          <mxGeometry x="350" y="370" width="120" height="60" as="geometry" />
        </mxCell>
        <mxCell id="tx3kYR19iMO4YYq1ai4r-17" value="" style="endArrow=none;html=1;rounded=0;" edge="1" parent="1">
          <mxGeometry width="50" height="50" relative="1" as="geometry">
            <mxPoint x="820" y="270" as="sourcePoint" />
            <mxPoint x="840" y="270" as="targetPoint" />
          </mxGeometry>
        </mxCell>
        <mxCell id="tx3kYR19iMO4YYq1ai4r-18" value="" style="endArrow=none;html=1;rounded=0;" edge="1" parent="1">
          <mxGeometry width="50" height="50" relative="1" as="geometry">
            <mxPoint x="840" y="270" as="sourcePoint" />
            <mxPoint x="840" y="330" as="targetPoint" />
          </mxGeometry>
        </mxCell>
      </root>
    </mxGraphModel>
  </diagram>
</mxfile>
